PathFileType	4	(X/Y/Z)	21_coords_data.trc
DataRate	CameraRate	NumFrames	NumMarkers	Units	OrigDataRate	OrigDataStartFrame	OrigNumFrames
30.0	30.0	5	21	m	30.0	21	71
Frame#	Time	THUMB_TIP	THUMB_IP	THUMB_MCP	THUMB_CMC	INDEX_TIP	INDEX_DIP	INDEX_PIP	INDEX_MCP	MIDDLE_TIP	MIDDLE_DIP	MIDDLE_PIP	MIDDLE_MCP	RING_TIP	RING_DIP	RING_PIP	RING_MCP	PINKY_TIP	PINKY_DIP	PINKY_PIP	PINKY_MCP	WRIST
X1	Y1	Z1	X2	Y2	Z2	X3	Y3	Z3	X4	Y4	Z4	X5	Y5	Z5	X6	Y6	Z6	X7	Y7	Z7	X8	Y8	Z8	X9	Y9	Z9	X10	Y10	Z10	X11	Y11	Z11	X12	Y12	Z12	X13	Y13	Z13	X14	Y14	Z14	X15	Y15	Z15	X16	Y16	Z16	X17	Y17	Z17	X18	Y18	Z18	X19	Y19	Z19	X20	Y20	Z20	X21	Y21	Z21
19	0.6666666666666637	0.5453674421983529	-0.02361207107903629	-0.1179219368654903	0.5242583000369159	-0.020910658518505265	-0.12658833677468267	0.49506657035124213	-0.016060708825889614	-0.11693738314627641	0.47543807000132854	-0.022715317316101657	-0.07743639379340775	0.5616395239438406	0.06276028290914326	-0.15900226318244717	0.5497212981949762	0.053222376916871705	-0.14925627712244832	0.5331277280485768	0.04260869227123676	-0.13363536290337846	0.5062014066179834	0.026149823000478523	-0.10503964765538262	0.520308171171536	-0.017402828977072682	-0.11169489524482698	0.5358362450376035	-0.012278920290183737	-0.11948106771776745	0.5478523847040364	0.01407890096556541	-0.11627370179434035	0.5176651159895612	0.02640560281804627	-0.08572981288018744	0.529325097865414	-0.02033128085643865	-0.10492116391494255	0.5457047972881199	-0.013157402093032955	-0.10721046737009382	0.5580067962558087	0.00665984212613957	-0.09848592543617782	0.5292417368619776	0.016220204447782938	-0.07172977353893606	0.6045599880258326	0.006139023057662452	-0.07621564738587877	0.5878612025306194	0.0023943399105297303	-0.07585800075520077	0.5670934951584176	-0.00036772090765913035	-0.07448491316177536	0.5316952324289149	-0.003926722862058529	-0.06855364417262236	0.46228308100186083	-0.023011742144276925	-0.051989820119430985
20	0.6999999999999968	0.5453157269325317	-0.023516412899071137	-0.11801193541264668	0.5241819042191617	-0.02080376972839082	-0.12661444112600767	0.49498766561558	-0.015966193230071313	-0.11696486673228194	0.47542195786782515	-0.0226897549211158	-0.07744440622742241	0.5615462407774517	0.06286641571403984	-0.15898773177267717	0.5496304756679162	0.05332549597087266	-0.1492416868154231	0.5330431249188343	0.04269694831480453	-0.13362427336601912	0.5061212132176279	0.026237249829316522	-0.1050248836851313	0.5202637681085114	-0.017348703473713423	-0.11173358043022255	0.5357643670550944	-0.01215718680551614	-0.1195297068389604	0.5477768211230668	0.014199928165902653	-0.1163027907185335	0.5176062280534197	0.026476633743241607	-0.08572231107884987	0.5292567915885619	-0.020206783667046202	-0.10495533086716499	0.5456445328630414	-0.013056031986961814	-0.1072593895318904	0.5579424195635725	0.006770149155250205	-0.09854936639661135	0.5291956873195628	0.016284872303489517	-0.07175727310953167	0.604548846488325	0.006078968749469338	-0.07628522201047641	0.5878429609793412	0.002366091976271356	-0.07592754138789737	0.5670697835541729	-0.00035269228364676053	-0.07455083124756012	0.5316703893215329	-0.0038865332185884505	-0.06861127678542617	0.46228308100186083	-0.023011742144276925	-0.051989820119430985
21	0.7333333333333302	0.5452545144560729	-0.023348167084083604	-0.1181291794707303	0.5240995910916947	-0.02064140033201256	-0.12668152600236526	0.4949123023631332	-0.01585242062787484	-0.1169867928926325	0.4754168977691986	-0.022664076044932147	-0.07744667971375974	0.5613984054074448	0.06303983362456111	-0.15897991484587834	0.5494936574475179	0.05348313788029513	-0.14923586320079016	0.5329253239275362	0.04282391994851409	-0.13361916603226404	0.5060330086437543	0.026329602470768432	-0.10501187738721754	0.5201843979909198	-0.017256001448720748	-0.11175976332488753	0.5356576869896359	-0.012017948998214179	-0.11957897902008058	0.54766362827342	0.014342701233924782	-0.11635670602898066	0.517532665742705	0.026563769230097733	-0.08571492874688474	0.5292053328481114	-0.020069493252811377	-0.10499124116888528	0.5455814082519118	-0.012908913148731438	-0.10734713737672208	0.5578741827676632	0.006914999991340709	-0.09862474426933623	0.5291304195180759	0.016370121122723624	-0.07180837627062014	0.6045109315100734	0.00608306552425919	-0.07638027823428048	0.5878007461962572	0.0023892454995601	-0.0760261590409966	0.5670247840080471	-0.00030847188540172876	-0.07465002857300232	0.5316249899347842	-0.0037774224151351232	-0.06867471161129635	0.46228308100186094	-0.023011742144276925	-0.051989820119430985
22	0.7666666666666633	0.5452527880657598	-0.02323591483714793	-0.11821118116668883	0.5240819267631456	-0.020553551022919447	-0.12673171847800854	0.49489481705630084	-0.015825036753277177	-0.11700681334929905	0.4754023069852296	-0.022562818812772334	-0.07745261832465056	0.5612248683126833	0.0633051404913636	-0.15892847923292477	0.5493359191898324	0.05371330106452643	-0.14919968150843504	0.5327915645246887	0.04300453490132494	-0.13359146287286336	0.5059437782017622	0.026439012949487473	-0.10498349289906636	0.5201162081501819	-0.017072589000481364	-0.11176932027586203	0.5355880237559782	-0.011854437959213926	-0.11960474123269359	0.5475574359978299	0.014523855003299224	-0.11639096137582114	0.5174518301583104	0.02666807816002681	-0.08569375853981193	0.5291483114740512	-0.01991729283401178	-0.10497512100086534	0.5455062331342246	-0.012732021989532494	-0.10738142144991758	0.5578100033692686	0.007092959303524382	-0.09867697811715948	0.5290613881456423	0.01647168513635633	-0.07183899275170286	0.6044672051973996	0.006215516634754725	-0.07640086918536429	0.5877582816958808	0.0025148616886768727	-0.07605877506021672	0.5669828589023591	-0.00019773698723435373	-0.07470391891513656	0.5315851810075507	-0.003673687912304602	-0.0687201395223194	0.46228308100186083	-0.023011742144276925	-0.051989820119430985
23	0.7999999999999965	0.5452349014372568	-0.02305066890599594	-0.11820663803748482	0.5240640361469767	-0.020398507004452338	-0.1267366145971722	0.4948597464392164	-0.015759861652504648	-0.11702000860721576	0.4754028963383689	-0.022516371192738416	-0.0774514533772622	0.5610512635220928	0.06358888150099662	-0.15885998313275876	0.5491847856010177	0.05394812230606827	-0.1491521273502473	0.532666987644436	0.04316002734877089	-0.13357043325564122	0.5058454734751471	0.026541767498972635	-0.10496840690729975	0.5200742503017008	-0.016886914236025174	-0.111715213060739	0.5355156829918253	-0.011687069056512733	-0.11962241019913501	0.5474530701330844	0.01470833191657428	-0.11643005280848093	0.5173763919075709	0.026767194366421387	-0.08567090483044704	0.5290819565913492	-0.019694595573437668	-0.10494286368307243	0.5454448984458719	-0.012541653339366743	-0.10741056529825146	0.5577507435617692	0.007291319590786882	-0.09872728597904618	0.5289881147921012	0.016578540826346022	-0.07187249977658233	0.604418980792059	0.006250388764737602	-0.07657795769378922	0.5877078493585308	0.002561719627193093	-0.07621490645075274	0.5669327991452402	-0.0001464120504853783	-0.07484547939843969	0.5315456312813711	-0.0035807094305791987	-0.0687760969686173	0.46228308100186083	-0.023011742144276925	-0.051989820119430985
